<?xml version="1.0" encoding="utf-8"?>
<svg width="376px" height="112px" viewBox="0 0 376 112" version="1.1"
     xmlns="http://www.w3.org/2000/svg">
    <g id="diffusible">
        <g id="diffusible" fill="#536DFE">
            <path d="M13.3125 71.8125L13.3125 74.9062Q13.4062 75.8438 13.4062 76.3594Q13.4062 81.6562 16.2422 85.2188Q19.0781 88.7812 22.9219 88.7812L23.3906 88.7812Q26.1562 88.7812 28.5 87.4688Q30.8438 86.1562 31.9688 84.1406Q34.2188 80.1562 34.2188 69.4219L34.2656 68.4844L34.2656 67.5469L34.2188 67.0781L34.1719 65.6719L34.0312 63.3281Q34.0312 59.5312 31.8984 57.3984Q29.7656 55.2656 26.2969 55.2656L24.9375 55.2656Q19.9688 55.2656 16.6406 59.7891Q13.3125 64.3125 13.3125 71.8125ZM45.5156 87.7969Q45.5156 93.2344 41.0156 93.2344Q39.4219 93.2344 37.8281 92.4375Q36.2344 91.6406 35.6953 91.6406Q35.1562 91.6406 31.0078 93.2344Q26.8594 94.8281 23.8125 94.8281L21.7969 94.8281Q13.7812 94.8281 9.375 89.1562Q4.96875 83.4844 4.96875 74.1094L5.01562 72.9844L5.01562 71.8594Q5.01562 67.5469 6.5625 62.9062Q8.15625 58.2656 11.0625 54.7969Q16.5938 48.3281 25.5938 48.3281L32.3906 48.7969Q34.3125 48.7969 34.875 46.3359Q35.4375 43.875 35.7188 37.7109Q36 31.5469 36.75 29.8125Q37.875 27.2344 40.875 27.2344L41.6719 27.2344Q43.875 27.2344 44.5781 29.25Q44.9062 30.1875 44.9062 36.4219L44.7656 41.8125L44.7188 42.8906L44.4844 55.9688L44.4844 71.0156Q44.4844 73.0312 44.9062 79.0781L45.1875 83.0156Q45.5156 87.6094 45.5156 87.7969ZM68.2031 35.3438Q68.2031 40.2188 62.6719 40.2188L62.2969 40.2188L62.1094 40.1719L60.7031 40.0312Q60.5156 39.9844 60.375 39.9844Q57.3281 39.9844 57.3281 35.8125L57.3281 34.9219Q57.3281 32.3438 58.5 31.1719Q59.6719 30 61.4062 30L62.4844 29.8594L63.5625 29.8594L65.1562 30.0938Q68.0625 30.0938 68.0625 33.375L68.2031 34.4531L68.2031 35.3438ZM66.6562 73.7812L68.625 88.1719L68.625 89.2031L68.5781 89.6719Q68.5781 92.7188 67.3125 93.9844Q66.0469 95.25 62.3906 95.25L61.8281 95.25Q58.5469 95.25 57.6562 91.6875Q57.1875 89.8594 57.1875 77.5781L57.1875 57.5156L56.9531 54.375L56.9531 53.3438Q56.9531 51.0469 57.7969 50.1562Q58.6406 49.2656 60.4688 49.2656L62.0625 49.2656Q65.3906 49.2656 66.1406 51.6562Q66.4688 52.6875 66.4688 59.3438L66.4688 69.4688L66.6094 72.2812Q66.6562 72.8438 66.6562 73.7812ZM93.5156 42.3281Q93.5156 44.9062 94.7812 46.2656Q95.0625 46.5469 99.9375 48.7031Q103.406 50.2031 103.406 52.7344Q103.406 54.4219 99.9141 56.1094Q96.4219 57.7969 95.2031 60.5625Q92.8125 66.0469 92.8125 81.9844Q92.8125 91.2188 92.0625 93.5156Q90.9844 96.8906 87.2812 96.8906L86.3438 96.8906Q84.2344 96.8906 83.4375 94.4531Q82.9688 93 82.9688 87.4219L83.0625 85.2656Q83.1094 84.1406 83.1094 83.0156L83.25 79.6875L83.2969 76.4062Q83.2969 67.2656 82.3125 60.8906Q81.8906 58.2188 80.2734 56.1328Q78.6562 54.0469 78.6562 52.0781L78.6562 51.2812Q78.6562 50.1562 80.6484 48Q82.6406 45.8438 83.3906 43.7344Q87.8906 31.4531 88.8281 30.4219Q92.8125 25.875 100.078 25.875Q104.344 25.875 106.125 27.1641Q107.906 28.4531 107.906 29.3438L107.906 30.0469Q107.906 31.9219 105.75 32.8594Q105 33.1875 101.438 33.7266Q97.875 34.2656 96.3281 35.4844Q93.5156 37.7344 93.5156 42.3281ZM126.891 42.3281Q126.891 44.9062 128.156 46.2656Q128.438 46.5469 133.312 48.7031Q136.781 50.2031 136.781 52.7344Q136.781 54.4219 133.289 56.1094Q129.797 57.7969 128.578 60.5625Q126.188 66.0469 126.188 81.9844Q126.188 91.2188 125.438 93.5156Q124.359 96.8906 120.656 96.8906L119.719 96.8906Q117.609 96.8906 116.812 94.4531Q116.344 93 116.344 87.4219L116.438 85.2656Q116.484 84.1406 116.484 83.0156L116.625 79.6875L116.672 76.4062Q116.672 67.2656 115.688 60.8906Q115.266 58.2188 113.648 56.1328Q112.031 54.0469 112.031 52.0781L112.031 51.2812Q112.031 50.1562 114.023 48Q116.016 45.8438 116.766 43.7344Q121.266 31.4531 122.203 30.4219Q126.188 25.875 133.453 25.875Q137.719 25.875 139.5 27.1641Q141.281 28.4531 141.281 29.3438L141.281 30.0469Q141.281 31.9219 139.125 32.8594Q138.375 33.1875 134.812 33.7266Q131.25 34.2656 129.703 35.4844Q126.891 37.7344 126.891 42.3281ZM162.984 88.2188Q166.125 88.2188 168.914 86.6016Q171.703 84.9844 173.273 81.6562Q174.844 78.3281 175.711 67.2188Q176.578 56.1094 176.859 54.9375Q177.656 51.2812 180.539 51.2812Q183.422 51.2812 184.172 53.4609Q184.922 55.6406 184.922 61.8281Q184.922 68.0156 185.461 74.2266Q186 80.4375 186 84.2812L186.094 86.3906Q186.094 90.375 184.805 91.8047Q183.516 93.2344 181.43 93.2344Q179.344 93.2344 177.516 92.1562Q175.688 91.0781 174.891 91.0781Q174.094 91.0781 171.961 91.9688Q169.828 92.8594 167.648 93.6328Q165.469 94.4062 161.812 94.4062L160.688 94.4062Q153.188 94.4062 149.578 89.2969Q145.969 84.1875 145.969 71.8594L145.969 66.9375L146.016 65.7188L146.016 63.3281Q146.016 53.0156 146.531 51.75Q147.281 49.875 150.445 49.875Q153.609 49.875 154.828 53.6719Q155.297 55.125 155.297 67.9219Q155.297 80.7188 156.422 83.4844Q158.344 88.2188 162.984 88.2188ZM199.875 69.7969Q195.891 66.375 195.891 60.7734Q195.891 55.1719 200.602 51.5156Q205.312 47.8594 213.094 47.8594L214.266 47.8594Q218.578 47.8594 221.859 49.0781Q226.969 51 226.969 53.2969Q226.969 56.6719 223.547 56.6719Q223.219 56.6719 219.586 55.8047Q215.953 54.9375 212.953 54.9375Q209.953 54.9375 207.562 56.3906Q205.172 57.8438 205.172 60.6094Q205.172 63.375 208.125 65.1562Q209.906 66.2344 216.117 68.3438Q222.328 70.4531 225.422 73.0312Q229.453 76.3594 229.453 81.5625L229.453 82.6875Q229.453 88.3594 224.508 92.1094Q219.562 95.8594 212.438 95.8594L211.219 95.8594Q205.125 95.8594 200.297 93.6797Q195.469 91.5 195.469 88.9688Q195.469 85.4062 199.078 85.4062Q199.875 85.4062 203.93 86.7891Q207.984 88.1719 211.688 88.1719Q215.391 88.1719 217.734 86.6719Q220.078 85.1719 220.078 82.3828Q220.078 79.5938 217.078 77.7188Q215.25 76.5469 208.852 74.2734Q202.453 72 199.875 69.7969ZM250.312 35.3438Q250.312 40.2188 244.781 40.2188L244.406 40.2188L244.219 40.1719L242.812 40.0312Q242.625 39.9844 242.484 39.9844Q239.438 39.9844 239.438 35.8125L239.438 34.9219Q239.438 32.3438 240.609 31.1719Q241.781 30 243.516 30L244.594 29.8594L245.672 29.8594L247.266 30.0938Q250.172 30.0938 250.172 33.375L250.312 34.4531L250.312 35.3438ZM248.766 73.7812L250.734 88.1719L250.734 89.2031L250.688 89.6719Q250.688 92.7188 249.422 93.9844Q248.156 95.25 244.5 95.25L243.938 95.25Q240.656 95.25 239.766 91.6875Q239.297 89.8594 239.297 77.5781L239.297 57.5156L239.062 54.375L239.062 53.3438Q239.062 51.0469 239.906 50.1562Q240.75 49.2656 242.578 49.2656L244.172 49.2656Q247.5 49.2656 248.25 51.6562Q248.578 52.6875 248.578 59.3438L248.578 69.4688L248.719 72.2812Q248.766 72.8438 248.766 73.7812ZM292.547 68.4375L292.453 65.9062Q292.453 60.8438 289.758 57.4688Q287.062 54.0938 283.734 54.0938L282.797 54.0938L282.375 54.1406Q276.844 54.1406 273.984 58.4531Q271.781 61.7812 271.781 67.6875Q271.641 69.0938 271.641 69.6094L271.547 72.0469L271.547 74.4844Q271.547 82.3125 273.492 85.2188Q275.438 88.125 280.266 88.125L280.688 88.125Q286.078 88.125 289.336 83.6953Q292.594 79.2656 292.594 70.5L292.594 68.9062L292.547 68.4375ZM262.641 83.7656L262.641 75.2812L262.688 74.2031L262.688 72.0938L262.734 69.9375L262.734 67.8281L262.828 64.6406L262.828 58.1719L263.016 50.7188Q263.062 49.6406 263.062 48.5156L263.156 43.125L263.156 41.0156Q263.156 31.4531 263.484 29.9531Q264 27.5156 266.25 27.5156L267.141 27.5156Q270.609 27.5156 271.594 29.9297Q272.578 32.3438 272.578 39.7734Q272.578 47.2031 272.93 48.8672Q273.281 50.5312 274.734 50.5312Q274.922 50.5312 276.75 50.0156L279.188 49.4062Q282 48.7031 285.117 48.7031Q288.234 48.7031 291.328 50.0156Q297.422 52.6406 300.375 60.7031Q302.297 65.9531 302.297 70.9688L302.297 74.25Q302.297 77.8594 300.844 82.1719Q298.078 90.2812 290.391 93.6094Q287.062 95.0156 283.406 95.0156L281.391 95.0156Q279.422 95.0156 276 94.0781Q272.578 93.1406 271.594 93.1406L268.078 93.375Q265.078 93.375 263.859 91.3594Q262.641 89.3438 262.641 83.7656ZM317.109 26.1094L318.656 26.1094Q320.906 26.1094 321.703 27.0469Q322.5 27.9844 322.734 29.3906Q322.969 30.7969 322.969 35.6719L322.734 45.5156L322.734 47.1562L322.641 49.6406L322.641 51.2812L322.406 61.2656L322.406 62.9062L322.359 64.5469Q322.359 74.1562 322.57 76.4766Q322.781 78.7969 324.047 84.6562Q325.312 90.5156 325.312 90.5625Q325.312 93.1875 324.211 94.2422Q323.109 95.2969 320.25 95.2969L319.453 95.2969Q316.359 95.2969 314.906 93.1406Q312.75 90 312.75 84.1875L312.75 81.1875L312.797 80.3906L312.891 77.3438L312.938 76.5469Q312.938 75.75 312.938 74.9531L313.031 71.6719L313.031 70.0312L313.125 65.8594L313.125 64.2188L313.266 59.2031L313.266 57.5625L313.406 51.75Q313.406 50.9062 313.406 50.0625L313.5 46.7812L313.5 45.1406L313.594 41.0156L313.594 37.7812L313.359 31.6875Q313.359 28.7344 314.203 27.4219Q315.047 26.1094 317.109 26.1094ZM356.859 67.8281Q359.859 67.8281 362.016 66.4688Q363.188 65.7188 363.188 63.4688L363.188 63.1875Q363.188 59.8125 361.125 57.4922Q359.062 55.1719 355.266 55.1719L354.703 55.1719Q350.438 55.1719 346.852 58.3594Q343.266 61.5469 343.266 66.4219L343.266 67.2188Q343.266 68.6719 345.469 68.6719L345.938 68.7656L347.625 68.7656L347.906 68.7188L350.484 68.5312L350.812 68.4844L352.547 68.3438Q352.875 68.2969 353.297 68.25Q353.719 68.2031 355.008 68.0156Q356.297 67.8281 356.859 67.8281ZM354.375 95.9062L353.297 95.9062Q348.562 95.8594 344.672 94.1719Q337.219 90.8906 334.594 82.9219Q333.141 78.4688 333.141 73.9219L333.141 71.8125Q333.188 67.0781 334.969 62.3906Q338.625 52.9219 347.016 49.8281Q350.953 48.4219 355.078 48.4219L356.109 48.4219Q362.766 48.4219 367.172 52.5234Q371.578 56.625 371.578 63.7031L371.578 64.6406Q371.578 69.6094 368.391 71.625Q365.953 73.1719 357.211 74.4375Q348.469 75.7031 346.734 76.2656Q343.922 77.1562 343.922 78.8438Q343.922 83.1094 348.188 85.9688Q350.672 87.6094 355.922 87.6094Q358.078 87.6094 362.648 86.3203Q367.219 85.0312 368.391 85.0312Q371.156 85.0312 371.156 87.8438Q371.156 90.6562 365.789 93.2812Q360.422 95.9062 354.375 95.9062Z"/>
        </g>
    </g>
</svg>