<?xml version="1.0" standalone="no"?>
<!DOCTYPE svg PUBLIC "-//W3C//DTD SVG 20010904//EN"
 "http://www.w3.org/TR/2001/REC-SVG-20010904/DTD/svg10.dtd">
<svg version="1.0" xmlns="http://www.w3.org/2000/svg"
 width="512.000000pt" height="512.000000pt" viewBox="0 0 512.000000 512.000000"
 preserveAspectRatio="xMidYMid meet">
<metadata>
Created by potrace 1.14, written by Peter Selinger 2001-2017
</metadata>
<g transform="translate(0.000000,512.000000) scale(0.100000,-0.100000)"
fill="#000000" stroke="none">
<path d="M3642 4674 c-12 -8 -22 -24 -22 -35 0 -28 32 -87 81 -150 75 -95 123
-131 164 -123 68 12 87 62 51 131 -32 64 -98 128 -160 157 -73 35 -89 38 -114
20z"/>
<path d="M2530 4554 c-8 -1 -46 -7 -85 -13 -38 -6 -86 -13 -105 -16 -19 -3
-100 -19 -180 -35 -80 -15 -170 -31 -200 -35 -30 -4 -68 -9 -85 -11 -16 -2
-133 -6 -260 -9 -337 -8 -442 -26 -590 -103 -70 -37 -114 -77 -285 -260 -75
-79 -94 -90 -183 -108 -52 -10 -54 -45 -4 -94 36 -36 76 -48 178 -55 90 -7
128 -21 140 -52 16 -43 10 -62 -65 -187 -70 -115 -151 -268 -191 -361 -9 -22
-21 -49 -26 -60 -30 -66 -72 -211 -93 -317 -24 -121 -30 -161 -46 -308 -8 -80
-6 -402 4 -460 3 -19 8 -53 11 -75 4 -22 15 -83 26 -135 12 -52 22 -102 24
-110 8 -39 65 -194 79 -215 26 -39 74 -37 125 6 69 57 160 28 247 -77 80 -96
126 -202 139 -319 30 -268 65 -372 152 -459 64 -63 199 -127 319 -150 11 -2
53 -11 94 -19 114 -24 130 -27 200 -34 177 -19 365 1 407 43 34 34 30 79 -8
115 -17 16 -36 29 -43 30 -6 1 -27 2 -46 4 -132 9 -225 45 -309 121 -97 87
-163 199 -256 434 -56 142 -132 306 -198 425 -60 108 -89 229 -90 369 0 94 4
122 22 169 31 80 65 138 111 187 l51 55 -7 -45 c-3 -25 -10 -63 -13 -86 -11
-60 -4 -164 14 -235 34 -131 116 -284 159 -295 24 -6 64 9 79 30 19 28 29 99
27 186 -4 185 -2 210 19 250 11 22 69 88 128 147 96 96 116 123 183 242 101
181 182 266 285 299 110 36 173 20 205 -50 26 -59 16 -89 -58 -168 -87 -91
-178 -250 -221 -380 -40 -125 -54 -205 -57 -335 -4 -177 21 -274 101 -401 65
-102 241 -251 375 -319 61 -31 215 -89 263 -100 347 -77 555 -67 804 37 86 35
240 136 333 217 183 159 259 280 276 436 3 36 0 49 -17 66 -25 25 -65 19 -92
-14 -44 -54 -115 -121 -152 -142 -51 -30 -121 -48 -153 -40 -22 5 -24 10 -19
41 7 44 44 103 164 262 54 72 112 164 142 225 44 91 113 276 125 339 2 12 11
52 20 88 32 134 45 290 41 480 -2 102 -6 199 -9 215 -3 17 -9 46 -12 65 -39
249 -151 476 -298 607 -62 54 -98 74 -137 75 -47 2 -64 -22 -51 -69 41 -146
49 -185 46 -232 -3 -67 -27 -117 -67 -142 -59 -35 -117 -19 -189 56 -42 43
-87 122 -148 260 -56 127 -97 191 -178 272 -128 131 -286 213 -501 259 -65 14
-336 27 -391 18z"/>
<path d="M4520 2320 c-30 -30 -41 -66 -39 -122 3 -50 16 -70 59 -86 28 -11 83
0 103 20 57 56 45 167 -20 197 -37 17 -81 13 -103 -9z"/>
<path d="M685 1246 c-137 -61 -78 -274 70 -252 110 17 144 172 53 237 -37 27
-84 33 -123 15z"/>
<path d="M2265 1042 c-2 -2 -20 -4 -41 -4 -26 0 -44 -7 -62 -25 -64 -64 41
-184 214 -243 88 -29 127 -56 189 -127 85 -99 144 -154 188 -173 151 -67 518
-31 723 70 221 110 189 214 -83 265 -12 2 -64 6 -115 10 -127 8 -152 16 -318
95 -153 73 -273 113 -380 126 -65 8 -309 12 -315 6z"/>
<path d="M3953 849 c-98 -48 -96 -167 4 -211 77 -34 174 -9 213 55 70 115 -81
224 -217 156z"/>
</g>
</svg>
